<mxfile host="app.diagrams.net" agent="Mozilla/5.0 (Windows NT 10.0; Win64; x64) AppleWebKit/537.36 (KHTML, like Gecko) Chrome/129.0.0.0 Safari/537.36" version="24.7.17">
  <diagram name="Page-1" id="-H_mtQnk-PTXWXPvYvuk">
    <mxGraphModel dx="3444" dy="2020" grid="1" gridSize="10" guides="1" tooltips="1" connect="1" arrows="0" fold="1" page="1" pageScale="1" pageWidth="4681" pageHeight="3300" math="0" shadow="0">
      <root>
        <mxCell id="0" />
        <mxCell id="1" parent="0" />
        <mxCell id="fnRWYfsaQO0EPqaBbEek-6" value="" style="rounded=0;whiteSpace=wrap;html=1;align=left;" parent="1" vertex="1">
          <mxGeometry x="95" y="330" width="705" height="550" as="geometry" />
        </mxCell>
        <mxCell id="fnRWYfsaQO0EPqaBbEek-3" value="" style="rounded=0;whiteSpace=wrap;html=1;align=left;" parent="1" vertex="1">
          <mxGeometry x="95" y="40" width="705" height="250" as="geometry" />
        </mxCell>
        <mxCell id="zA23MoTUsTF4_91t8viU-2" value="MongoDB" style="shape=cylinder3;whiteSpace=wrap;html=1;boundedLbl=1;backgroundOutline=1;size=15;" parent="1" vertex="1">
          <mxGeometry x="560" y="110" width="60" height="80" as="geometry" />
        </mxCell>
        <mxCell id="zA23MoTUsTF4_91t8viU-3" value="pymongo-api" style="rounded=1;whiteSpace=wrap;html=1;" parent="1" vertex="1">
          <mxGeometry x="360" y="120" width="120" height="60" as="geometry" />
        </mxCell>
        <mxCell id="zA23MoTUsTF4_91t8viU-4" style="edgeStyle=orthogonalEdgeStyle;rounded=0;orthogonalLoop=1;jettySize=auto;html=1;exitX=1;exitY=0.5;exitDx=0;exitDy=0;entryX=0;entryY=0.5;entryDx=0;entryDy=0;entryPerimeter=0;" parent="1" source="zA23MoTUsTF4_91t8viU-3" target="zA23MoTUsTF4_91t8viU-2" edge="1">
          <mxGeometry relative="1" as="geometry" />
        </mxCell>
        <mxCell id="gZ_beA-vXtJLZaEBM_sQ-8" value="pymongo-api" style="rounded=1;whiteSpace=wrap;html=1;" parent="1" vertex="1">
          <mxGeometry x="320" y="410" width="120" height="60" as="geometry" />
        </mxCell>
        <mxCell id="gZ_beA-vXtJLZaEBM_sQ-9" style="edgeStyle=orthogonalEdgeStyle;rounded=0;orthogonalLoop=1;jettySize=auto;html=1;exitX=0.5;exitY=1;exitDx=0;exitDy=0;" parent="1" source="gZ_beA-vXtJLZaEBM_sQ-8" target="fnRWYfsaQO0EPqaBbEek-10" edge="1">
          <mxGeometry relative="1" as="geometry" />
        </mxCell>
        <mxCell id="ZVnaHanlXdLFKSegdmK0-5" value="" style="edgeStyle=orthogonalEdgeStyle;rounded=0;orthogonalLoop=1;jettySize=auto;html=1;entryX=0;entryY=0.5;entryDx=0;entryDy=0;entryPerimeter=0;" parent="1" source="gZ_beA-vXtJLZaEBM_sQ-11" target="gZ_beA-vXtJLZaEBM_sQ-10" edge="1">
          <mxGeometry relative="1" as="geometry" />
        </mxCell>
        <mxCell id="gZ_beA-vXtJLZaEBM_sQ-11" value="mongo&amp;nbsp;&lt;div&gt;&lt;span style=&quot;white-space-collapse: preserve;&quot; data-src-align=&quot;0:13&quot; class=&quot;EzKURWReUAB5oZgtQNkl&quot;&gt;router &lt;/span&gt;&lt;/div&gt;" style="rounded=0;whiteSpace=wrap;html=1;" parent="1" vertex="1">
          <mxGeometry x="322.5" y="717" width="115" height="100" as="geometry" />
        </mxCell>
        <mxCell id="ZVnaHanlXdLFKSegdmK0-2" style="edgeStyle=orthogonalEdgeStyle;rounded=0;orthogonalLoop=1;jettySize=auto;html=1;entryX=1;entryY=0.5;entryDx=0;entryDy=0;" parent="1" source="ZVnaHanlXdLFKSegdmK0-1" target="fnRWYfsaQO0EPqaBbEek-10" edge="1">
          <mxGeometry relative="1" as="geometry" />
        </mxCell>
        <mxCell id="ZVnaHanlXdLFKSegdmK0-1" value="configSrv&lt;div&gt;(&lt;font style=&quot;font-size: 12px;&quot;&gt;&lt;span style=&quot;text-wrap: nowrap; background-color: rgb(255, 255, 255);&quot;&gt;данные&lt;br&gt;&lt;/span&gt;&lt;span style=&quot;text-wrap: nowrap; background-color: initial;&quot;&gt;&amp;nbsp;о кластере&lt;/span&gt;&lt;/font&gt;)&lt;/div&gt;" style="rounded=0;whiteSpace=wrap;html=1;" parent="1" vertex="1">
          <mxGeometry x="640" y="395" width="120" height="60" as="geometry" />
        </mxCell>
        <mxCell id="ZVnaHanlXdLFKSegdmK0-6" style="edgeStyle=orthogonalEdgeStyle;rounded=0;orthogonalLoop=1;jettySize=auto;html=1;entryX=0;entryY=0;entryDx=0;entryDy=52.5;entryPerimeter=0;" parent="1" source="gZ_beA-vXtJLZaEBM_sQ-11" target="gZ_beA-vXtJLZaEBM_sQ-7" edge="1">
          <mxGeometry relative="1" as="geometry" />
        </mxCell>
        <mxCell id="fnRWYfsaQO0EPqaBbEek-1" value="User" style="shape=umlActor;verticalLabelPosition=bottom;verticalAlign=top;html=1;outlineConnect=0;" parent="1" vertex="1">
          <mxGeometry x="170" y="120" width="30" height="60" as="geometry" />
        </mxCell>
        <mxCell id="fnRWYfsaQO0EPqaBbEek-2" style="edgeStyle=orthogonalEdgeStyle;rounded=0;orthogonalLoop=1;jettySize=auto;html=1;exitX=0.5;exitY=0.5;exitDx=0;exitDy=0;exitPerimeter=0;" parent="1" source="fnRWYfsaQO0EPqaBbEek-1" edge="1">
          <mxGeometry relative="1" as="geometry">
            <mxPoint x="490" y="160" as="sourcePoint" />
            <mxPoint x="360" y="150" as="targetPoint" />
          </mxGeometry>
        </mxCell>
        <mxCell id="fnRWYfsaQO0EPqaBbEek-4" value="as-is" style="text;html=1;align=center;verticalAlign=middle;whiteSpace=wrap;rounded=0;" parent="1" vertex="1">
          <mxGeometry x="155" y="70" width="60" height="30" as="geometry" />
        </mxCell>
        <mxCell id="fnRWYfsaQO0EPqaBbEek-7" value="sprint2 task 1 -&amp;nbsp;sharding" style="text;html=1;align=center;verticalAlign=middle;whiteSpace=wrap;rounded=0;" parent="1" vertex="1">
          <mxGeometry x="150" y="355" width="150" height="30" as="geometry" />
        </mxCell>
        <mxCell id="fnRWYfsaQO0EPqaBbEek-8" value="User" style="shape=umlActor;verticalLabelPosition=bottom;verticalAlign=top;html=1;outlineConnect=0;" parent="1" vertex="1">
          <mxGeometry x="160" y="410" width="30" height="60" as="geometry" />
        </mxCell>
        <mxCell id="fnRWYfsaQO0EPqaBbEek-9" style="edgeStyle=orthogonalEdgeStyle;rounded=0;orthogonalLoop=1;jettySize=auto;html=1;exitX=0.5;exitY=0.5;exitDx=0;exitDy=0;exitPerimeter=0;entryX=0;entryY=0.5;entryDx=0;entryDy=0;" parent="1" source="fnRWYfsaQO0EPqaBbEek-8" target="gZ_beA-vXtJLZaEBM_sQ-8" edge="1">
          <mxGeometry relative="1" as="geometry">
            <mxPoint x="195" y="160" as="sourcePoint" />
            <mxPoint x="370" y="160" as="targetPoint" />
          </mxGeometry>
        </mxCell>
        <mxCell id="fnRWYfsaQO0EPqaBbEek-10" value="mongo&amp;nbsp;&lt;div&gt;&lt;span style=&quot;white-space-collapse: preserve;&quot; data-src-align=&quot;0:13&quot; class=&quot;EzKURWReUAB5oZgtQNkl&quot;&gt;driver&lt;/span&gt;&lt;/div&gt;" style="rounded=0;whiteSpace=wrap;html=1;" parent="1" vertex="1">
          <mxGeometry x="322.5" y="548" width="115" height="100" as="geometry" />
        </mxCell>
        <mxCell id="fnRWYfsaQO0EPqaBbEek-11" style="edgeStyle=orthogonalEdgeStyle;rounded=0;orthogonalLoop=1;jettySize=auto;html=1;exitX=0.5;exitY=1;exitDx=0;exitDy=0;entryX=0.5;entryY=0;entryDx=0;entryDy=0;" parent="1" source="fnRWYfsaQO0EPqaBbEek-10" target="gZ_beA-vXtJLZaEBM_sQ-11" edge="1">
          <mxGeometry relative="1" as="geometry">
            <mxPoint x="390" y="480" as="sourcePoint" />
            <mxPoint x="390" y="540" as="targetPoint" />
          </mxGeometry>
        </mxCell>
        <mxCell id="gZ_beA-vXtJLZaEBM_sQ-10" value="MongoDB&lt;br&gt;shard 1" style="shape=cylinder3;whiteSpace=wrap;html=1;boundedLbl=1;backgroundOutline=1;size=15;" parent="1" vertex="1">
          <mxGeometry x="560" y="652" width="60" height="80" as="geometry" />
        </mxCell>
        <mxCell id="gZ_beA-vXtJLZaEBM_sQ-7" value="MongoDB&lt;br&gt;shard 2" style="shape=cylinder3;whiteSpace=wrap;html=1;boundedLbl=1;backgroundOutline=1;size=15;" parent="1" vertex="1">
          <mxGeometry x="561" y="775" width="60" height="80" as="geometry" />
        </mxCell>
      </root>
    </mxGraphModel>
  </diagram>
</mxfile>
